<svg width="36" height="36" viewBox="0 0 36 36" fill="none" xmlns="http://www.w3.org/2000/svg">
<path d="M24.915 22.725C24.225 22.725 23.655 22.17 23.655 21.48C23.655 20.79 24.225 20.25 24.915 20.25C25.605 20.25 26.175 20.79 26.175 21.48C26.175 22.17 25.605 22.725 24.915 22.725ZM11.115 22.725C10.425 22.725 9.855 22.17 9.855 21.48C9.855 20.79 10.425 20.25 11.115 20.25C11.805 20.25 12.36 20.79 12.36 21.48C12.36 22.17 11.805 22.725 11.115 22.725ZM25.365 15.21L27.87 10.89C28.005 10.635 27.915 10.32 27.675 10.185C27.42 10.035 27.105 10.125 27 10.38L24.435 14.745C22.425 13.83 20.25 13.35 18 13.365C15.705 13.365 13.5 13.86 11.595 14.73L9.06 10.365C8.925 10.11 8.61 10.02 8.355 10.17C8.1 10.305 8.025 10.62 8.16 10.875L10.65 15.195C6.375 17.535 3.435 21.87 3 27H33C32.58 21.885 29.655 17.55 25.365 15.21Z" fill="currentColor"/>
</svg>
