<svg width="36" height="36" viewBox="0 0 36 36" fill="none" xmlns="http://www.w3.org/2000/svg">
<path d="M25.8284 26.75C24.8601 28.1966 23.8334 29.6083 22.2701 29.6316C20.7067 29.6666 20.2051 28.71 18.4317 28.71C16.6467 28.71 16.0984 29.6083 14.6167 29.6666C13.0884 29.725 11.9334 28.1266 10.9534 26.715C8.9584 23.8333 7.43007 18.525 9.4834 14.955C10.4984 13.1816 12.3184 12.0616 14.2901 12.0266C15.7834 12.0033 17.2067 13.0416 18.1284 13.0416C19.0384 13.0416 20.7651 11.7933 22.5734 11.98C23.3317 12.015 25.4551 12.2833 26.8201 14.29C26.7151 14.36 24.2884 15.7833 24.3117 18.735C24.3467 22.2583 27.4034 23.4366 27.4384 23.4483C27.4034 23.53 26.9484 25.1283 25.8284 26.75ZM19.1667 8.08331C20.0184 7.11498 21.4301 6.37998 22.5967 6.33331C22.7484 7.69831 22.2001 9.07498 21.3834 10.055C20.5784 11.0466 19.2484 11.8166 17.9417 11.7116C17.7667 10.37 18.4201 8.96998 19.1667 8.08331Z" fill="currentColor"/>
</svg>
