<svg width="36" height="36" viewBox="0 0 36 36" fill="none" xmlns="http://www.w3.org/2000/svg">
<path d="M21.0567 14.7416C20.5667 15.0683 19.0151 15.955 18.7817 16.13C18.3267 16.4916 17.9067 16.4683 17.4517 16.1183C17.2184 15.9316 15.6667 15.045 15.1767 14.73C14.6167 14.3683 14.6517 13.9133 15.2701 13.6566C17.1834 12.8516 19.0967 12.91 20.9984 13.6916C21.5701 13.9366 21.5934 14.3916 21.0567 14.7416ZM29.4801 23.235C28.3951 20.7966 26.9134 18.58 25.0001 16.6316C24.3817 15.99 23.9967 15.2666 23.7634 14.4383C23.6467 14.0533 23.5651 13.6566 23.4834 13.26C23.2501 12.2333 23.1451 11.1833 22.6667 10.215C21.8151 8.37165 20.3334 7.41498 18.1867 7.33331C16.0751 7.39165 14.5001 8.27831 13.5784 10.1333C13.3334 10.635 13.1584 11.16 13.0417 11.6966C12.8434 12.5833 12.6684 13.505 12.4584 14.4033C12.2834 15.1616 11.9334 15.815 11.3384 16.3983C9.46006 18.23 7.95506 20.33 6.81173 22.64C6.64839 22.9783 6.48506 23.3166 6.38006 23.6666C6.15839 24.4366 6.71839 24.9733 7.53506 24.7866C8.04839 24.6816 8.56173 24.5766 9.05173 24.425C9.53006 24.25 9.71673 24.3666 9.83339 24.8333C10.5917 27.3416 12.2484 29.1033 14.7801 30.0833C19.5867 31.9033 25.1984 29.3133 26.4117 24.74C26.4934 24.425 26.6101 24.3083 26.9601 24.425C27.4967 24.5883 28.0451 24.705 28.5934 24.8333C29.1651 24.9383 29.5851 24.6466 29.6667 24.0866C29.7017 23.7833 29.5967 23.515 29.4801 23.235Z" fill="currentColor"/>
</svg>
