<svg width="36" height="37" viewBox="0 0 36 37" fill="none" xmlns="http://www.w3.org/2000/svg">
<path d="M27.3333 26.6667V12.6667H8.66659V26.6667H27.3333ZM27.3333 8C27.9521 8 28.5456 8.24583 28.9832 8.68342C29.4208 9.121 29.6666 9.71449 29.6666 10.3333V26.6667C29.6666 27.2855 29.4208 27.879 28.9832 28.3166C28.5456 28.7542 27.9521 29 27.3333 29H8.66659C8.04775 29 7.45425 28.7542 7.01667 28.3166C6.57908 27.879 6.33325 27.2855 6.33325 26.6667V10.3333C6.33325 9.03833 7.38325 8 8.66659 8H27.3333ZM19.1666 24.3333V22H24.9999V24.3333H19.1666ZM15.1766 19.6667L10.4983 15H13.7999L17.6499 18.85C18.1049 19.305 18.1049 20.0517 17.6499 20.5067L13.8233 24.3333H10.5216L15.1766 19.6667Z" fill="currentColor"/>
</svg>
