<svg width="192" height="33" viewBox="0 0 192 33" fill="none" xmlns="http://www.w3.org/2000/svg">
<path d="M39.76 14.448H51.6V16.496H39.76V14.448ZM40.016 26H37.648V3.6H53.008V5.648H40.016V26ZM57.418 26V2.256H59.69V26H57.418ZM72.8598 26.16C71.2384 26.16 69.7771 25.7973 68.4758 25.072C67.1958 24.3253 66.1824 23.312 65.4358 22.032C64.6891 20.7307 64.3158 19.248 64.3158 17.584C64.3158 15.8987 64.6891 14.416 65.4358 13.136C66.1824 11.856 67.1958 10.8533 68.4758 10.128C69.7558 9.40267 71.2171 9.04 72.8598 9.04C74.5238 9.04 75.9958 9.40267 77.2758 10.128C78.5771 10.8533 79.5904 11.856 80.3158 13.136C81.0624 14.416 81.4358 15.8987 81.4358 17.584C81.4358 19.248 81.0624 20.7307 80.3158 22.032C79.5904 23.312 78.5771 24.3253 77.2758 25.072C75.9744 25.7973 74.5024 26.16 72.8598 26.16ZM72.8598 24.144C74.0758 24.144 75.1531 23.8773 76.0918 23.344C77.0304 22.7893 77.7664 22.0213 78.2998 21.04C78.8544 20.0373 79.1318 18.8853 79.1318 17.584C79.1318 16.2613 78.8544 15.1093 78.2998 14.128C77.7664 13.1467 77.0304 12.3893 76.0918 11.856C75.1531 11.3013 74.0864 11.024 72.8918 11.024C71.6971 11.024 70.6304 11.3013 69.6918 11.856C68.7531 12.3893 68.0064 13.1467 67.4518 14.128C66.8971 15.1093 66.6198 16.2613 66.6198 17.584C66.6198 18.8853 66.8971 20.0373 67.4518 21.04C68.0064 22.0213 68.7531 22.7893 69.6918 23.344C70.6304 23.8773 71.6864 24.144 72.8598 24.144ZM89.0295 26L82.6935 9.2H84.8695L90.6295 24.784H89.6375L95.5575 9.2H97.5095L103.366 24.784H102.374L108.23 9.2H110.31L103.942 26H101.798L96.1655 11.344H96.8375L91.1735 26H89.0295ZM114.211 26V3.6H123.331C125.72 3.6 127.811 4.08 129.603 5.04C131.416 5.97867 132.824 7.29067 133.827 8.976C134.829 10.6613 135.331 12.6027 135.331 14.8C135.331 16.9973 134.829 18.9387 133.827 20.624C132.824 22.3093 131.416 23.632 129.603 24.592C127.811 25.5307 125.72 26 123.331 26H114.211ZM116.579 23.952H123.203C125.187 23.952 126.904 23.568 128.355 22.8C129.827 22.0107 130.968 20.9333 131.779 19.568C132.589 18.1813 132.995 16.592 132.995 14.8C132.995 12.9867 132.589 11.3973 131.779 10.032C130.968 8.66667 129.827 7.6 128.355 6.832C126.904 6.04267 125.187 5.648 123.203 5.648H116.579V23.952ZM140.168 26V9.2H142.344V13.776L142.12 12.976C142.589 11.696 143.379 10.7253 144.488 10.064C145.597 9.38133 146.973 9.04 148.616 9.04V11.248C148.531 11.248 148.445 11.248 148.36 11.248C148.275 11.2267 148.189 11.216 148.104 11.216C146.333 11.216 144.947 11.76 143.944 12.848C142.941 13.9147 142.44 15.44 142.44 17.424V26H140.168ZM159.454 26.16C157.832 26.16 156.371 25.7973 155.07 25.072C153.79 24.3253 152.776 23.312 152.03 22.032C151.283 20.7307 150.91 19.248 150.91 17.584C150.91 15.8987 151.283 14.416 152.03 13.136C152.776 11.856 153.79 10.8533 155.07 10.128C156.35 9.40267 157.811 9.04 159.454 9.04C161.118 9.04 162.59 9.40267 163.87 10.128C165.171 10.8533 166.184 11.856 166.91 13.136C167.656 14.416 168.03 15.8987 168.03 17.584C168.03 19.248 167.656 20.7307 166.91 22.032C166.184 23.312 165.171 24.3253 163.87 25.072C162.568 25.7973 161.096 26.16 159.454 26.16ZM159.454 24.144C160.67 24.144 161.747 23.8773 162.686 23.344C163.624 22.7893 164.36 22.0213 164.894 21.04C165.448 20.0373 165.726 18.8853 165.726 17.584C165.726 16.2613 165.448 15.1093 164.894 14.128C164.36 13.1467 163.624 12.3893 162.686 11.856C161.747 11.3013 160.68 11.024 159.486 11.024C158.291 11.024 157.224 11.3013 156.286 11.856C155.347 12.3893 154.6 13.1467 154.046 14.128C153.491 15.1093 153.214 16.2613 153.214 17.584C153.214 18.8853 153.491 20.0373 154.046 21.04C154.6 22.0213 155.347 22.7893 156.286 23.344C157.224 23.8773 158.28 24.144 159.454 24.144ZM181.34 26.16C179.889 26.16 178.577 25.8293 177.404 25.168C176.231 24.4853 175.292 23.5147 174.588 22.256C173.905 20.976 173.564 19.4187 173.564 17.584C173.564 15.7493 173.905 14.2027 174.588 12.944C175.271 11.664 176.199 10.6933 177.372 10.032C178.545 9.37067 179.868 9.04 181.34 9.04C182.94 9.04 184.369 9.40267 185.628 10.128C186.908 10.832 187.911 11.8347 188.636 13.136C189.361 14.416 189.724 15.8987 189.724 17.584C189.724 19.2907 189.361 20.784 188.636 22.064C187.911 23.344 186.908 24.3467 185.628 25.072C184.369 25.7973 182.94 26.16 181.34 26.16ZM172.668 32.208V9.2H174.844V14.256L174.62 17.616L174.94 21.008V32.208H172.668ZM181.18 24.144C182.375 24.144 183.441 23.8773 184.38 23.344C185.319 22.7893 186.065 22.0213 186.62 21.04C187.175 20.0373 187.452 18.8853 187.452 17.584C187.452 16.2827 187.175 15.1413 186.62 14.16C186.065 13.1787 185.319 12.4107 184.38 11.856C183.441 11.3013 182.375 11.024 181.18 11.024C179.985 11.024 178.908 11.3013 177.948 11.856C177.009 12.4107 176.263 13.1787 175.708 14.16C175.175 15.1413 174.908 16.2827 174.908 17.584C174.908 18.8853 175.175 20.0373 175.708 21.04C176.263 22.0213 177.009 22.7893 177.948 23.344C178.908 23.8773 179.985 24.144 181.18 24.144Z" fill="currentColor"/>
<g clip-path="url(#clip0_1_7)">
<mask id="mask0_1_7" style="mask-type:luminance" maskUnits="userSpaceOnUse" x="0" y="1" width="28" height="28">
<path d="M28 1H0V29H28V1Z" fill="white"/>
</mask>
<g mask="url(#mask0_1_7)">
<mask id="mask1_1_7" style="mask-type:luminance" maskUnits="userSpaceOnUse" x="0" y="1" width="28" height="28">
<path d="M28 1H0V29H28V1Z" fill="white"/>
</mask>
<g mask="url(#mask1_1_7)">
<path d="M14 21.5595C17.6228 21.5595 20.5597 18.6227 20.5597 15C20.5597 11.3772 17.6228 8.44037 14 8.44037C10.3773 8.44037 7.44043 11.3772 7.44043 15C7.44043 18.6227 10.3773 21.5595 14 21.5595Z" stroke="currentColor" stroke-width="2.2075" stroke-miterlimit="10" stroke-linecap="round"/>
<path d="M4.78814 11.4056L2.26717 8.88521C1.52239 8.14009 1.104 7.12968 1.104 6.07616C1.104 5.02264 1.52239 4.01223 2.26717 3.26711C3.01229 2.52232 4.0227 2.10394 5.07622 2.10394C6.12974 2.10394 7.14015 2.52232 7.88528 3.26711L10.4057 5.78808" stroke="currentColor" stroke-width="2.2075" stroke-miterlimit="10" stroke-linecap="round"/>
<path d="M17.5945 5.78808L20.1149 3.26711C20.86 2.52232 21.8704 2.10394 22.9239 2.10394C23.9775 2.10394 24.9879 2.52232 25.733 3.26711C26.4778 4.01223 26.8962 5.02264 26.8962 6.07616C26.8962 7.12968 26.4778 8.14009 25.733 8.88521L23.212 11.4056" stroke="currentColor" stroke-width="2.2075" stroke-miterlimit="10" stroke-linecap="round"/>
<path d="M10.4057 24.2119L7.88528 26.7328C7.14015 27.4777 6.12974 27.896 5.07622 27.896C4.0227 27.896 3.01229 27.4777 2.26717 26.7328C1.52239 25.9878 1.104 24.9774 1.104 23.9239C1.104 22.8703 1.52239 21.8599 2.26717 21.1148L4.78814 18.5944" stroke="currentColor" stroke-width="2.2075" stroke-miterlimit="10" stroke-linecap="round"/>
<path d="M23.212 18.5944L25.733 21.1148C26.4778 21.8599 26.8962 22.8703 26.8962 23.9239C26.8962 24.9774 26.4778 25.9878 25.733 26.7328C24.9879 27.4777 23.9775 27.896 22.9239 27.896C21.8704 27.896 20.86 27.4777 20.1149 26.7328L17.5945 24.2119" stroke="currentColor" stroke-width="2.2075" stroke-miterlimit="10" stroke-linecap="round"/>
</g>
</g>
</g>
<defs>
<clipPath id="clip0_1_7">
<rect width="28" height="28" fill="white" transform="translate(0 1)"/>
</clipPath>
</defs>
</svg>
